<!-- Generated by IcoMoon.io -->
<svg version="1.1" xmlns="http://www.w3.org/2000/svg" width="768" height="768" viewBox="0 0 768 768">
<title></title>
<g id="icomoon-ignore">
</g>
<path fill="#fff" d="M528 496.5l79.5-81h-63q0-66-47.25-112.5t-113.25-46.5q-39 0-75 19.5l22.5 22.5q21-10.5 52.5-10.5 52.5 0 90 37.5t37.5 90h-63zM384 576q39 0 75-19.5l-22.5-24q-24 12-52.5 12-52.5 0-90-38.25t-37.5-90.75h63l-79.5-79.5-79.5 79.5h63q0 66 47.25 113.25t113.25 47.25zM640.5 160.5q25.5 0 44.25 18.75t18.75 44.25v384q0 25.5-18.75 45t-44.25 19.5h-513q-25.5 0-44.25-19.5t-18.75-45v-384q0-25.5 18.75-44.25t44.25-18.75h102l58.5-64.5h192l58.5 64.5h102z"></path>
</svg>
